<?xml version="1.0" encoding="iso-8859-1"?>
<!-- Generator: Adobe Illustrator 19.0.0, SVG Export Plug-In . SVG Version: 6.00 Build 0)  -->
<svg version="1.1" id="Capa_1" xmlns="http://www.w3.org/2000/svg" xmlns:xlink="http://www.w3.org/1999/xlink" x="0px" y="0px"
	 viewBox="0 0 512 512" style="enable-background:new 0 0 512 512;" xml:space="preserve">
<g>
	<g>
		<g>
			<path d="M320,162.133h34.133c4.713,0,8.533-3.821,8.533-8.533c0-4.713-3.82-8.533-8.533-8.533h-25.6v-76.8h85.333
				c3.451-0.001,6.562-2.08,7.882-5.268s0.591-6.858-1.849-9.298l-19.567-19.567L419.9,14.566c2.442-2.44,3.173-6.112,1.852-9.301
				c-1.322-3.188-4.434-5.266-7.885-5.265H320c-4.713,0-8.533,3.82-8.533,8.533V153.6C311.467,158.313,315.287,162.133,320,162.133z
				 M328.533,17.067h64.734L382.234,28.1c-3.331,3.332-3.331,8.734,0,12.066L393.267,51.2h-64.734V17.067z"/>
			<path d="M371.2,85.333h-17.067c-4.713,0-8.533,3.821-8.533,8.533c0,4.713,3.82,8.533,8.533,8.533H371.2
				c56.538,0.038,102.362,45.862,102.4,102.4v128H328.533c-4.713,0-8.533,3.821-8.533,8.533s3.82,8.533,8.533,8.533H473.6v17.067
				H302.933V204.8c0.09-31.703-12.508-62.124-34.987-84.48c-6.965-6.897-14.748-12.915-23.177-17.92h41.097
				c4.713,0,8.533-3.821,8.533-8.533c0-4.713-3.82-8.533-8.533-8.533h-102.4C127.48,85.658,79.125,124.577,66.842,179.2H46.933
				c-14.138,0-25.6,11.461-25.6,25.6v119.467c0,14.138,11.462,25.6,25.6,25.6H64v25.6c0,4.713,3.82,8.533,8.533,8.533H192v17.067
				c0,14.138,11.461,25.6,25.6,25.6h34.133v76.8c0,4.713,3.82,8.533,8.533,8.533H294.4c4.713,0,8.533-3.82,8.533-8.533v-76.8h34.133
				c14.138,0,25.6-11.462,25.6-25.6V384h119.467c4.713,0,8.533-3.82,8.533-8.533V204.8C490.624,138.838,437.162,85.376,371.2,85.333
				z M81.067,366.933v-17.067H217.6c4.713,0,8.533-3.82,8.533-8.533s-3.821-8.533-8.533-8.533H46.933
				c-4.713,0-8.533-3.82-8.533-8.533V204.8c0-4.713,3.82-8.533,8.533-8.533H217.6c4.713,0,8.533-3.82,8.533-8.533
				s-3.821-8.533-8.533-8.533H84.309c11.906-45.062,52.55-76.542,99.157-76.8c56.538,0.038,102.362,45.862,102.4,102.4v162.133
				H81.067z M285.867,494.933H268.8v-68.267h17.067V494.933z M345.6,401.067c0,4.713-3.821,8.533-8.533,8.533H217.6
				c-4.713,0-8.533-3.82-8.533-8.533V384H345.6V401.067z"/>
			<path d="M202.377,214.955l-70.11,50.978l-70.076-50.97c-3.813-2.771-9.15-1.927-11.921,1.886
				c-2.771,3.813-1.927,9.15,1.886,11.921l75.093,54.605c0.274,0.161,0.56,0.304,0.853,0.427c0.273,0.161,0.559,0.301,0.853,0.418
				c1.039,0.486,2.165,0.756,3.311,0.794c1.158-0.033,2.296-0.303,3.345-0.794c0.295-0.118,0.58-0.257,0.853-0.418
				c0.294-0.123,0.579-0.265,0.853-0.427l75.093-54.613c3.813-2.771,4.657-8.108,1.886-11.921
				C211.526,213.028,206.189,212.184,202.377,214.955z"/>
			<path d="M90.159,271.533c-2.984-0.781-6.156,0.109-8.299,2.327l-30.72,30.72c-2.44,2.44-3.169,6.11-1.849,9.298
				c1.32,3.188,4.431,5.267,7.882,5.268c2.263,0,4.433-0.9,6.033-2.5l30.72-30.72c2.218-2.143,3.108-5.315,2.327-8.299
				S93.143,272.314,90.159,271.533z"/>
			<path d="M182.673,273.86c-2.143-2.218-5.315-3.108-8.299-2.327c-2.983,0.781-5.313,3.111-6.094,6.094
				c-0.781,2.984,0.109,6.156,2.327,8.299l30.72,30.72c3.348,3.234,8.671,3.188,11.962-0.104c3.292-3.292,3.338-8.614,0.104-11.962
				L182.673,273.86z"/>
		</g>
	</g>
</g>
<g>
</g>
<g>
</g>
<g>
</g>
<g>
</g>
<g>
</g>
<g>
</g>
<g>
</g>
<g>
</g>
<g>
</g>
<g>
</g>
<g>
</g>
<g>
</g>
<g>
</g>
<g>
</g>
<g>
</g>
</svg>
